<svg xmlns="http://www.w3.org/2000/svg" viewBox="0 0 40 40"><path fill="none" stroke="#4e7ab5" stroke-width="2" d="M31 17v16s-.1 5 5 5h3"/><path fill="#b0c1d4" d="M17 32.5c-8.5 0-15.5-7-15.5-15.5S8.5 1.5 17 1.5s15.5 7 15.5 15.5-7 15.5-15.5 15.5z"/><path fill="#66798f" d="M17 2c8.3 0 15 6.7 15 15s-6.7 15-15 15S2 25.3 2 17 8.7 2 17 2m0-1C8.2 1 1 8.2 1 17s7.2 16 16 16 16-7.2 16-16S25.8 1 17 1z"/><path fill="#8bb7f0" d="M17 12.5c-1.9 0-3.5-1.6-3.5-3.5s1.6-3.5 3.5-3.5 3.5 1.6 3.5 3.5-1.6 3.5-3.5 3.5z"/><path fill="#4e7ab5" d="M17 6c1.7 0 3 1.3 3 3s-1.3 3-3 3-3-1.3-3-3 1.3-3 3-3m0-1c-2.2 0-4 1.8-4 4s1.8 4 4 4 4-1.8 4-4-1.8-4-4-4z"/><path fill="#8bb7f0" d="M17 28.5c-1.9 0-3.5-1.6-3.5-3.5s1.6-3.5 3.5-3.5 3.5 1.6 3.5 3.5-1.6 3.5-3.5 3.5z"/><path fill="#4e7ab5" d="M17 22c1.7 0 3 1.3 3 3s-1.3 3-3 3-3-1.3-3-3 1.3-3 3-3m0-1c-2.2 0-4 1.8-4 4s1.8 4 4 4 4-1.8 4-4-1.8-4-4-4z"/><path fill="#8bb7f0" d="M9 20.5c-1.9 0-3.5-1.6-3.5-3.5s1.6-3.5 3.5-3.5 3.5 1.6 3.5 3.5-1.6 3.5-3.5 3.5z"/><path fill="#4e7ab5" d="M9 14c1.7 0 3 1.3 3 3s-1.3 3-3 3-3-1.3-3-3 1.3-3 3-3m0-1c-2.2 0-4 1.8-4 4s1.8 4 4 4 4-1.8 4-4-1.8-4-4-4z"/><path fill="#8bb7f0" d="M25 20.5c-1.9 0-3.5-1.6-3.5-3.5s1.6-3.5 3.5-3.5 3.5 1.6 3.5 3.5-1.6 3.5-3.5 3.5z"/><path fill="#4e7ab5" d="M25 14c1.7 0 3 1.3 3 3s-1.3 3-3 3-3-1.3-3-3 1.3-3 3-3m0-1c-2.2 0-4 1.8-4 4s1.8 4 4 4 4-1.8 4-4-1.8-4-4-4z"/><path fill="#36404d" d="M17 15c-.2 0 .2 0 0 0-1.1 0-2 .9-2 2s.9 2 2 2c.2 0-.2 0 0 0 1.1 0 2-.9 2-2s-.9-2-2-2z"/></svg>